<svg width="450" height="338" viewBox="0 0 450 338" fill="none" xmlns="http://www.w3.org/2000/svg">
<path d="M326.97 32.7378H125.078V175.005H326.97V32.7378Z" fill="#E6E6E6"/>
<path d="M179.539 129.802C173.476 129.8 167.55 128 162.51 124.63C157.47 121.26 153.542 116.472 151.224 110.87C148.905 105.268 148.3 99.1044 149.484 93.1584C150.668 87.2124 153.589 81.751 157.877 77.4648C162.164 73.1786 167.627 70.26 173.573 69.078C179.52 67.896 185.683 68.5038 191.284 70.8244C196.885 73.145 201.672 77.0743 205.04 82.1155C208.408 87.1566 210.206 93.0832 210.206 99.146C210.197 107.276 206.963 115.07 201.213 120.817C195.464 126.565 187.668 129.796 179.539 129.802ZM179.539 76.7473C175.109 76.7495 170.78 78.065 167.098 80.5276C163.416 82.9902 160.546 86.4891 158.853 90.5822C157.159 94.6752 156.717 99.1785 157.583 103.523C158.448 107.867 160.583 111.857 163.715 114.988C166.848 118.12 170.84 120.252 175.184 121.115C179.529 121.979 184.032 121.534 188.124 119.839C192.216 118.143 195.714 115.272 198.174 111.589C200.635 107.906 201.949 103.576 201.949 99.146C201.943 93.2054 199.579 87.5099 195.378 83.3103C191.176 79.1107 185.479 76.7502 179.539 76.7473Z" fill="white"/>
<path d="M210.206 99.146H201.949C201.94 93.2063 199.575 87.5126 195.374 83.3136C191.173 79.1146 185.478 76.7532 179.539 76.7472V68.4897C187.668 68.4957 195.464 71.7271 201.213 77.4747C206.963 83.2222 210.197 91.0163 210.206 99.146Z" fill="#24285B"/>
<path d="M179.539 129.802V121.5C185.478 121.494 191.173 119.132 195.374 114.933C199.575 110.735 201.94 105.041 201.949 99.1011H210.206C210.209 107.239 206.98 115.044 201.229 120.802C195.478 126.559 187.676 129.796 179.539 129.802Z" fill="#FFD200"/>
<path d="M256.264 161.179L254.531 174.656L298.688 174.859L295.211 161.179H256.264Z" fill="#24285B"/>
<path opacity="0.08" d="M264.825 55.0239C264.825 55.0239 258.457 55.8677 258.457 65.2502C258.457 74.6327 263.632 80.8314 260.347 86.7377C257.062 92.6439 221.051 85.3314 227.25 136.519L197.921 114.019C197.921 114.019 190.609 122.873 199.507 133.346C208.406 143.82 231.457 174.375 231.457 174.375H262.496L264.532 147.724L271.125 78.5814L271.777 60.3002L264.825 55.0239Z" fill="black"/>
<path d="M260.347 83.9253C260.347 83.9253 229.826 85.9615 236.272 141.3L205.02 116.55L199.676 121.5C199.676 121.5 230.805 175.838 253.676 154.609L260.347 83.9253Z" fill="#335AFF"/>
<path opacity="0.08" d="M260.347 83.9253C260.347 83.9253 229.826 85.9615 236.272 141.3L205.02 116.55L199.676 121.5C199.676 121.5 230.805 175.838 253.676 154.609L260.347 83.9253Z" fill="black"/>
<path d="M267.514 82.665L277.144 82.98C277.144 82.98 306.833 85.05 311.333 102.488C315.833 119.925 295.211 161.179 295.211 161.179H256.275C256.275 161.179 222.57 85.635 267.514 82.665Z" fill="#335AFF"/>
<path d="M41.1189 140.299H28.5864V163.114H41.1189V140.299Z" fill="#FFD200"/>
<path opacity="0.08" d="M291.949 96.0415C291.949 96.0415 274.5 101.25 280.676 119.734C286.852 138.218 281.351 160.234 267.514 161.179H295.211L308.34 125.269L291.949 96.0415Z" fill="black"/>
<path d="M287.82 105.064C287.449 94.3428 301.129 89.314 307.721 97.7965C311.434 102.555 314.077 109.047 313.706 117.957C312.581 144.675 305.629 174.657 305.629 174.657L293.445 174.915C293.445 174.915 296.73 148.523 291.195 128.599C289.15 120.914 288.017 113.014 287.82 105.064Z" fill="#335AFF"/>
<path opacity="0.46" d="M287.82 105.064C287.449 94.3428 301.129 89.314 307.721 97.7965C311.434 102.555 314.077 109.047 313.706 117.957C312.581 144.675 305.629 174.657 305.629 174.657L293.445 174.915C293.445 174.915 296.73 148.523 291.195 128.599C289.15 120.914 288.017 113.014 287.82 105.064Z" fill="white"/>
<path d="M336.026 186.019L303.75 146.869L296.19 152.01C296.19 152.01 318.555 201.712 329.029 201.881C339.502 202.05 336.026 186.019 336.026 186.019Z" fill="#335AFF"/>
<path opacity="0.08" d="M336.026 186.019L303.75 146.869L296.19 152.01C296.19 152.01 318.555 201.712 329.029 201.881C339.502 202.05 336.026 186.019 336.026 186.019Z" fill="black"/>
<path d="M84.1277 174.96L63.0002 202.365L47.7114 158.22C47.7114 158.22 42.0864 153.439 38.3402 157.376C34.5939 161.314 43.9652 164.306 43.9652 164.306C43.9652 164.306 41.7152 215.291 60.8402 219.803C75.7127 223.301 111.375 203.625 108.214 181.001C106.605 169.29 91.3502 165.6 84.1277 174.96Z" fill="#F4A28C"/>
<path opacity="0.45" d="M227.925 313.751C333.86 313.751 419.737 307.012 419.737 298.699C419.737 290.385 333.86 283.646 227.925 283.646C121.99 283.646 36.1123 290.385 36.1123 298.699C36.1123 307.012 121.99 313.751 227.925 313.751Z" fill="#E6E6E6"/>
<path d="M267.21 61.9425C266.608 64.8375 266.4 67.8006 266.591 70.7513C266.694 71.4488 267.069 72.077 267.634 72.4987C268.199 72.9204 268.909 73.1011 269.606 73.0013C270.739 72.917 271.822 72.5082 272.728 71.8239C273.634 71.1395 274.324 70.2086 274.714 69.1425L276.84 64.71C277.17 63.7788 277.203 62.7683 276.935 61.8175C276.667 60.8666 276.111 60.0221 275.344 59.4C272.621 56.9475 267.75 58.7363 267.21 61.9425Z" fill="#F4A28C"/>
<path d="M276.457 65.5537L277.144 82.98L267.514 82.665L270.877 70.1212L276.457 65.5537Z" fill="#F4A28C"/>
<path d="M268.492 62.3137C270.114 62.5693 271.76 62.6373 273.397 62.5162C272.84 63.1784 272.488 63.9894 272.386 64.8491C272.285 65.7087 272.437 66.5794 272.824 67.3537C273.186 68.1088 273.799 68.7147 274.558 69.0676C275.317 69.4206 276.176 69.4988 276.986 69.2887L277.706 62.5387C277.849 61.5641 277.724 60.5692 277.346 59.6598C276.967 58.7505 276.349 57.9608 275.557 57.3749C274.872 56.876 274.159 56.4177 273.42 56.0024C271.552 54.9899 268.537 55.9462 266.951 54.4274C266.79 54.2733 266.592 54.1637 266.376 54.1096C266.159 54.0555 265.933 54.0587 265.718 54.1189C265.503 54.1791 265.308 54.2942 265.151 54.4529C264.995 54.6115 264.882 54.8083 264.825 55.0237C264.274 57.0487 264.262 60.3337 266.917 61.7737C267.407 62.044 267.94 62.2267 268.492 62.3137Z" fill="#24285B"/>
<path d="M272.25 67.1286C272.25 67.1286 272.531 65.0923 274.039 65.4298C275.546 65.7673 275.164 68.7036 273.049 68.7374L272.25 67.1286Z" fill="#F4A28C"/>
<path d="M266.692 65.25L264.982 67.1175C264.884 67.2222 264.815 67.3502 264.78 67.4893C264.745 67.6283 264.747 67.774 264.784 67.9125C264.821 68.051 264.893 68.1777 264.992 68.2807C265.092 68.3837 265.216 68.4596 265.354 68.5012L267.322 69.12L266.692 65.25Z" fill="#F4A28C"/>
<path opacity="0.31" d="M270 72.8326C271.246 72.6878 272.421 72.1747 273.375 71.3589C273.375 71.3589 272.857 74.5089 269.01 77.2201L270 72.8326Z" fill="#CE8172"/>
<path d="M322.391 282.06C322.391 282.06 322.335 286.492 318.87 288.022C315.405 289.552 315.675 293.355 319.196 293.164C322.718 292.972 329.558 285.997 329.558 285.997L327.015 279.574L322.391 282.06Z" fill="#335AFF"/>
<path d="M336.026 235.507C336.026 235.507 315.382 236.419 317.632 250.425C319.882 264.431 328.983 279.574 328.983 279.574L321.052 282.949C321.052 282.949 305.302 264.859 303.75 242.55C302.197 220.241 333.798 225.146 336.026 235.507Z" fill="#24285B"/>
<path opacity="0.08" d="M336.026 235.507C336.026 235.507 315.382 236.419 317.632 250.425C319.882 264.431 328.983 279.574 328.983 279.574L321.052 282.949C321.052 282.949 305.302 264.859 303.75 242.55C302.197 220.241 333.798 225.146 336.026 235.507Z" fill="black"/>
<path d="M305.809 283.017C305.809 283.017 305.741 287.516 302.288 288.979C298.834 290.441 299.093 294.323 302.614 294.12C306.135 293.918 312.975 286.965 312.975 286.965L310.433 280.542L305.809 283.017Z" fill="#335AFF"/>
<path d="M352.013 241.74H347.355V281.914H352.013V241.74Z" fill="#FFD200"/>
<path opacity="0.46" d="M352.013 241.74H347.355V281.914H352.013V241.74Z" fill="white"/>
<path d="M365.119 144.36C365.119 144.36 369.394 121.387 390.015 131.782C405.225 139.444 390.375 200.554 381.51 232.144C379.995 237.544 376.757 242.302 372.29 245.693C367.822 249.085 362.369 250.924 356.76 250.931H327.622C318.735 250.931 317.149 238.252 325.755 236.047L326.272 235.924C331.279 234.799 337.162 233.854 342.529 233.145C347.054 232.553 351.237 230.422 354.376 227.109C357.515 223.796 359.417 219.504 359.764 214.954L365.119 144.36Z" fill="#FFD200"/>
<path d="M347.355 281.914L330.671 295.065H367.796L352.013 281.914H347.355Z" fill="#FFD200"/>
<path opacity="0.08" d="M347.355 281.914L330.671 295.065H367.796L352.013 281.914H347.355Z" fill="black"/>
<path d="M347.929 118.744C347.909 121.699 348.288 124.643 349.054 127.496C349.287 128.16 349.771 128.706 350.402 129.015C351.034 129.324 351.762 129.373 352.429 129.15C353.521 128.841 354.501 128.223 355.251 127.371C356.001 126.519 356.49 125.469 356.659 124.346L357.863 119.588C358.001 118.608 357.833 117.61 357.382 116.73C356.931 115.85 356.219 115.131 355.343 114.671C352.238 112.77 347.771 115.504 347.929 118.744Z" fill="#F4A28C"/>
<path d="M357.705 120.442L361.856 137.374L352.373 138.994L353.16 126.022L357.705 120.442Z" fill="#F4A28C"/>
<path opacity="0.31" d="M352.867 128.858C354.035 128.461 355.06 127.729 355.815 126.754C355.815 126.754 355.939 129.938 352.71 133.369L352.867 128.858Z" fill="#CE8172"/>
<path d="M360 135.338C353.466 135.09 346.998 136.716 341.359 140.025C335.719 143.334 331.144 148.188 328.174 154.013C326.256 157.913 324.881 162.058 324.09 166.331C318.915 193.095 333.675 217.125 333.675 217.125L364.118 217.384C364.118 217.384 404.37 139.86 360 135.338Z" fill="#335AFF"/>
<path d="M364.118 217.384C364.118 217.384 363.701 234.799 351.911 236.306C340.121 237.814 313.133 228.724 309.758 243.427C306.383 258.131 313.133 281.509 313.133 281.509L304.875 283.815C304.875 283.815 286.414 248.467 297.281 231.705C308.149 214.942 333.675 217.08 333.675 217.08L364.118 217.384Z" fill="#24285B"/>
<path opacity="0.08" d="M367.436 154.654C367.436 154.654 375.154 176.22 361.811 187.931C348.469 199.643 340.875 201.094 347.625 217.384L333.675 217.125C333.675 217.125 326.385 203.85 324.911 194.434C323.437 185.018 367.436 154.654 367.436 154.654Z" fill="black"/>
<path d="M151.897 219.78H144.337V295.447H151.897V219.78Z" fill="#A5A5A5"/>
<path d="M308.34 219.78H300.78V295.447H308.34V219.78Z" fill="#A5A5A5"/>
<path d="M315.326 207.934H136.721V227.857H315.326V207.934Z" fill="#E6E6E6"/>
<path d="M245.891 208.429L236.272 172.575L240.952 171.574L250.02 202.961L276.266 205.211V208.429H245.891Z" fill="#FFD200"/>
<path d="M139.882 166.376C139.882 166.376 154.305 177.199 160.481 192.398C161.266 194.276 161.575 196.318 161.381 198.345C161.188 200.371 160.497 202.318 159.372 204.013C158.246 205.709 156.719 207.101 154.926 208.065C153.134 209.03 151.132 209.537 149.096 209.543L132.221 209.655L139.882 166.376Z" fill="#F4A28C"/>
<path d="M123.086 151.762L121.781 159.322L114.964 159.817L119.115 147.724L123.086 151.762Z" fill="#F4A28C"/>
<path d="M120.701 140.625C121.291 140.146 121.993 139.824 122.742 139.69C123.49 139.555 124.26 139.612 124.98 139.856C125.7 140.1 126.347 140.522 126.86 141.084C127.372 141.645 127.735 142.327 127.912 143.066C128.824 146.531 129.465 151.594 125.449 152.066C119.295 152.696 118.215 144.765 118.215 144.765C118.614 143.169 119.48 141.728 120.701 140.625Z" fill="#F4A28C"/>
<path d="M121.883 146.25C121.883 146.25 121.253 144.664 119.993 145.755C118.733 146.846 120.409 148.601 121.399 148.241C122.389 147.881 121.883 146.25 121.883 146.25Z" fill="#F4A28C"/>
<path d="M96.8511 163.485C96.8511 163.485 113.254 154.384 127.845 159.829C154.417 169.729 152.955 187.549 134.302 238.579L109.834 238.714L96.8511 163.485Z" fill="#335AFF"/>
<path opacity="0.08" d="M121.95 158.366C121.95 158.366 120.363 162.247 123.075 173.553C125.786 184.86 139.882 222.75 139.882 222.75L134.257 238.601H125.358L98.0322 162.888C98.0322 162.888 110.407 156.465 121.95 158.366Z" fill="black"/>
<path d="M113.422 155.408C114.412 154.121 115.073 152.612 115.345 151.012C115.618 149.412 115.494 147.769 114.986 146.227C114.52 144.751 114.458 143.177 114.808 141.669C115.159 140.161 115.908 138.774 116.977 137.655C122.917 130.613 131.411 135.585 128.599 139.59C125.786 143.595 124.245 145.417 124.245 145.417C124.245 145.417 134.505 156.195 129.15 162.776C124.391 168.626 104.951 166.163 113.422 155.408Z" fill="#24285B"/>
<path d="M74.4189 261.281L87.2439 287.122L91.4177 286.301L83.4414 256.815L74.4189 261.281Z" fill="#F4A28C"/>
<path d="M86.9061 286.245C86.9061 286.245 86.0399 289.991 83.2386 291.15C80.4374 292.309 81.8661 296.381 86.0961 293.895C87.4094 293.123 88.6584 292.246 89.8311 291.274C90.9249 290.404 92.2287 289.837 93.6111 289.631C93.8759 289.572 94.1157 289.432 94.2971 289.231C94.4786 289.029 94.5927 288.776 94.6236 288.506C95.1861 286.436 90.5061 284.513 90.5061 284.513L86.9061 286.245Z" fill="#335AFF"/>
<path d="M92.6099 261.281L105.435 287.122L109.609 286.301L101.632 256.815L92.6099 261.281Z" fill="#F4A28C"/>
<path d="M105.098 286.245C105.098 286.245 104.243 289.991 101.43 291.15C98.6176 292.309 100.058 296.381 104.288 293.895C105.593 293.122 106.835 292.245 108 291.274C109.094 290.404 110.398 289.837 111.78 289.631C112.045 289.571 112.286 289.431 112.469 289.23C112.652 289.029 112.769 288.776 112.804 288.506C113.355 286.436 108.675 284.513 108.675 284.513L105.098 286.245Z" fill="#335AFF"/>
<path d="M81.7875 230.175C81.7875 230.175 62.6625 237.027 65.1712 249.458C67.68 261.889 76.7025 281.43 76.7025 281.43L115.582 279.068C115.582 279.068 106.267 244.935 126.236 243.99L128.88 237.117L81.7875 230.175Z" fill="#24285B"/>
<path opacity="0.58" d="M183.026 197.46C183.026 197.46 174.791 195.21 173.002 187.549C173.002 187.549 185.76 184.972 186.12 198.135L183.026 197.46Z" fill="#335AFF"/>
<path opacity="0.73" d="M184.027 196.65C184.027 196.65 178.279 187.549 183.341 179.055C183.341 179.055 193.039 185.209 188.73 196.661L184.027 196.65Z" fill="#335AFF"/>
<path d="M185.513 196.65C185.513 196.65 188.55 187.042 197.741 185.231C197.741 185.231 199.463 191.463 191.79 196.672L185.513 196.65Z" fill="#335AFF"/>
<path d="M179.539 196.436L181.215 207.855L191.722 207.9L193.275 196.492L179.539 196.436Z" fill="#24285B"/>
<path d="M117.293 243.99H112.635V284.164H117.293V243.99Z" fill="#FFD200"/>
<path opacity="0.46" d="M117.293 243.99H112.635V284.164H117.293V243.99Z" fill="white"/>
<path d="M113.085 284.164L96.4014 297.315H133.526L117.743 284.164H113.085Z" fill="#FFD200"/>
<path opacity="0.08" d="M113.085 284.164L96.4014 297.315H133.526L117.743 284.164H113.085Z" fill="black"/>
<path d="M125.91 237.116C125.91 237.116 130.939 167.276 101.16 161.888C71.3812 156.499 61.4474 182.138 78.8737 237.116H125.91Z" fill="#FFD200"/>
<path d="M78.8398 237.116C78.8398 237.116 80.2236 246.116 84.7236 249.322C89.2236 252.529 141.514 258.964 145.17 250.515C147.904 244.204 139.264 237.78 125.91 237.116H78.8398Z" fill="#FFD200"/>
<path d="M349.931 119.677C349.931 119.677 349.628 130.016 356.153 128.43C362.678 126.844 359.123 118.766 359.123 118.766C359.123 118.766 358.886 111.926 353.948 111.206C349.009 110.486 342 110.767 342.191 113.625C342.383 116.482 344.374 121.579 349.931 119.677Z" fill="#24285B"/>
<path d="M349.121 141.041C351.867 140.059 354.865 140.039 357.623 140.985C360.381 141.932 362.734 143.789 364.298 146.25C366.998 150.581 368.618 156.825 364.118 164.363C355.208 179.269 349.301 215.786 274.77 207.934V198.405C274.77 198.405 323.573 195.03 330.671 176.209C336.656 160.313 336.139 145.609 349.121 141.041Z" fill="#335AFF"/>
<path opacity="0.46" d="M349.121 141.041C351.867 140.059 354.865 140.039 357.623 140.985C360.381 141.932 362.734 143.789 364.298 146.25C366.998 150.581 368.618 156.825 364.118 164.363C355.208 179.269 349.301 215.786 274.77 207.934V198.405C274.77 198.405 323.573 195.03 330.671 176.209C336.656 160.313 336.139 145.609 349.121 141.041Z" fill="white"/>
<path d="M274.77 202.05C274.77 202.05 260.708 200.317 262.676 207.934H274.77V202.05Z" fill="#F4A28C"/>
<path d="M301.41 148.432C301.41 148.432 295.223 139.252 290.228 144.337C285.233 149.422 297.36 151.447 297.36 151.447L301.41 148.432Z" fill="#F4A28C"/>
<path d="M180.214 89.2236C180.765 89.2236 180.934 89.4149 180.934 89.9661V91.0911C181.889 91.1914 182.8 91.5502 183.567 92.129C184.334 92.7078 184.929 93.4846 185.287 94.3761C185.569 94.9499 185.445 95.2536 184.815 95.5011L183.69 96.0299C183.139 96.2886 182.88 96.1649 182.565 95.6024C182.321 95.0127 181.895 94.517 181.347 94.1887C180.8 93.8605 180.162 93.7171 179.527 93.7799C177.514 93.7799 176.591 94.3649 176.591 95.7149C176.637 96.1293 176.826 96.5146 177.126 96.8042C177.426 97.0938 177.818 97.2696 178.234 97.3011C178.793 97.4298 179.36 97.5163 179.932 97.5599C181.007 97.6136 182.068 97.822 183.082 98.1786C183.603 98.3582 184.085 98.6371 184.5 98.9999C184.927 99.448 185.259 99.9782 185.476 100.558C185.692 101.138 185.789 101.756 185.76 102.375C185.76 104.951 184.027 106.706 180.979 107.156V108.394C180.979 108.934 180.81 109.125 180.259 109.125H178.875C178.324 109.125 178.132 108.934 178.132 108.394V107.122C177.072 107.052 176.056 106.668 175.215 106.019C174.374 105.37 173.744 104.485 173.407 103.477C173.351 103.37 173.32 103.251 173.318 103.13C173.315 103.008 173.341 102.888 173.394 102.779C173.446 102.669 173.524 102.574 173.62 102.5C173.716 102.426 173.828 102.375 173.947 102.352L175.072 101.925C175.669 101.722 175.927 101.857 176.197 102.454C176.435 103.092 176.877 103.633 177.456 103.994C178.034 104.354 178.715 104.513 179.392 104.445C181.575 104.445 182.655 103.759 182.655 102.352C182.674 102.03 182.585 101.711 182.401 101.446C182.218 101.181 181.95 100.985 181.642 100.89C180.889 100.624 180.1 100.472 179.302 100.44C178.216 100.375 177.146 100.144 176.13 99.7536C175.627 99.5805 175.161 99.3133 174.757 98.9661C174.331 98.5486 173.997 98.0467 173.777 97.4927C173.556 96.9387 173.453 96.3447 173.475 95.7486C173.475 93.1949 175.084 91.4849 178.11 91.0911V89.9999C178.11 89.4486 178.301 89.2574 178.852 89.2574L180.214 89.2236Z" fill="#A5A5A5"/>
<path opacity="0.35" d="M201.938 140.299H158.614V159.75H201.938V140.299Z" fill="#A5A5A5"/>
<path d="M205.02 116.55C205.02 116.55 198.506 106.425 194.895 109.237C191.284 112.05 199.676 121.5 199.676 121.5L205.02 116.55Z" fill="#F4A28C"/>
<path d="M358.312 23.7378H302.175V65.2503H358.312V23.7378Z" fill="#FFD200"/>
<path d="M322.031 35.7412V54.0675L342.191 43.6162L322.031 35.7412Z" fill="white"/>
<path d="M140.479 51.4575C142.964 51.4575 144.979 49.4428 144.979 46.9575C144.979 44.4722 142.964 42.4575 140.479 42.4575C137.994 42.4575 135.979 44.4722 135.979 46.9575C135.979 49.4428 137.994 51.4575 140.479 51.4575Z" fill="#24285B"/>
<path d="M153.866 51.4575C156.351 51.4575 158.366 49.4428 158.366 46.9575C158.366 44.4722 156.351 42.4575 153.866 42.4575C151.381 42.4575 149.366 44.4722 149.366 46.9575C149.366 49.4428 151.381 51.4575 153.866 51.4575Z" fill="#335AFF"/>
<path d="M166.478 51.4575C168.963 51.4575 170.978 49.4428 170.978 46.9575C170.978 44.4722 168.963 42.4575 166.478 42.4575C163.992 42.4575 161.978 44.4722 161.978 46.9575C161.978 49.4428 163.992 51.4575 166.478 51.4575Z" fill="#FFD200"/>
</svg>
