<svg width="100" height="29" viewBox="0 0 100 29" fill="none" xmlns="http://www.w3.org/2000/svg">
<path d="M40.5237 21.607C40.3741 21.607 40.2394 21.5623 40.1496 21.4579C40.0449 21.3536 40 21.2195 40 21.0555V19.0434C40 18.7453 40.1047 18.5068 40.3142 18.2981L47.0623 9.96631H40.5686C40.4339 9.96631 40.2993 9.92159 40.1945 9.81726C40.0898 9.71292 40.0449 9.57878 40.0449 9.44464V7.52191C40.0449 7.37287 40.0898 7.23872 40.1945 7.14929C40.2993 7.04496 40.4339 7.00024 40.5686 7.00024H51.596C51.7456 7.00024 51.8803 7.04496 51.9701 7.14929C52.0598 7.25363 52.1197 7.37287 52.1197 7.52191V9.39992C52.1197 9.6384 52.0299 9.87688 51.8504 10.1154L44.9975 18.4621H51.5362C51.6858 18.4621 51.8204 18.5217 51.9102 18.626C52.015 18.7304 52.0748 18.8496 52.0748 18.9986V21.0853C52.0748 21.2344 52.015 21.3685 51.9102 21.4579C51.8055 21.5623 51.6858 21.607 51.5362 21.607H40.5237ZM54.1546 9.9365C54.005 9.9365 53.8703 9.89178 53.7805 9.78745C53.6758 9.68312 53.6309 9.56388 53.6309 9.41483V7.53682C53.6309 7.38777 53.6758 7.25363 53.7805 7.1642C53.8853 7.05986 54.005 7.01515 54.1546 7.01515H56.6683C56.818 7.01515 56.9526 7.05986 57.0424 7.1642C57.1471 7.26853 57.192 7.38777 57.192 7.53682V9.41483C57.192 9.56388 57.1471 9.69802 57.0424 9.78745C56.9377 9.89178 56.818 9.9365 56.6683 9.9365H54.1546ZM54.1696 21.607C54.02 21.607 53.8853 21.5623 53.7955 21.4579C53.6908 21.3536 53.6459 21.2344 53.6459 21.0853V11.2779C53.6459 11.1289 53.6908 10.9947 53.7955 10.9053C53.9003 10.801 54.02 10.7563 54.1696 10.7563H56.6384C56.788 10.7563 56.9227 10.801 57.0125 10.9053C57.1172 11.0096 57.1621 11.1289 57.1621 11.2779V21.0853C57.1621 21.2195 57.1172 21.3536 57.0125 21.4579C56.9077 21.5623 56.788 21.607 56.6384 21.607H54.1696ZM59.7506 21.607C59.601 21.607 59.4663 21.5623 59.3766 21.4579C59.2718 21.3536 59.2269 21.2344 59.2269 21.0853V11.2779C59.2269 11.1289 59.2718 10.9947 59.3766 10.9053C59.4813 10.801 59.601 10.7563 59.7506 10.7563H62.0399C62.1895 10.7563 62.3242 10.801 62.414 10.9053C62.5187 11.0096 62.5636 11.1289 62.5636 11.2779V11.9934C62.8778 11.576 63.3117 11.3823 63.8354 11.114C64.3741 10.8308 64.9875 10.6966 65.6608 10.6966C67.202 10.6966 68.2643 11.1438 68.8479 12.3362C69.1771 11.8145 69.6559 11.5313 70.2544 11.1885C70.8529 10.8606 71.4963 10.6817 72.1845 10.6817C73.3367 10.6817 74.2643 10.9202 74.9676 11.6953C75.7007 12.4554 76.0598 13.6031 76.0598 15.1383V21.0704C76.0598 21.2046 76.015 21.3387 75.9102 21.443C75.8055 21.5474 75.6858 21.5921 75.5362 21.5921H73.0823C72.9327 21.5921 72.798 21.5474 72.6783 21.443C72.5736 21.3387 72.5287 21.2195 72.5287 21.0704V15.3022C72.5287 14.6017 72.3791 14.1099 72.0948 13.7969C71.8105 13.4838 71.4364 13.3348 70.9426 13.3348C70.4938 13.3348 70.1197 13.4988 69.8354 13.8118C69.5362 14.1248 69.4015 14.6166 69.4015 15.2873V21.0704C69.4015 21.2046 69.3566 21.3387 69.2519 21.443C69.1471 21.5474 69.0274 21.5921 68.8778 21.5921H66.4539C66.3042 21.5921 66.1696 21.5474 66.0798 21.443C65.9751 21.3387 65.9302 21.2195 65.9302 21.0704V15.3022C65.9302 14.6166 65.7805 14.1248 65.4663 13.8267C65.1671 13.5137 64.793 13.3497 64.3292 13.3497C63.8803 13.3497 63.5062 13.5137 63.192 13.8267C62.8928 14.1397 62.7581 14.6166 62.7581 15.2873V21.0853C62.7581 21.2195 62.7132 21.3536 62.6085 21.4579C62.5037 21.5623 62.384 21.607 62.2344 21.607H59.7506ZM79.6359 25.5717C79.5162 25.5717 79.4115 25.527 79.3217 25.4524C79.2319 25.363 79.202 25.2587 79.202 25.1394C79.202 25.0351 79.2169 24.9457 79.2618 24.8711L80.8928 20.9512L76.8678 11.4717C76.8229 11.3674 76.808 11.2779 76.808 11.2183C76.8379 11.0991 76.8978 10.9947 76.9726 10.9053C77.0623 10.801 77.1671 10.7563 77.2868 10.7563H79.6808C79.98 10.7563 80.1746 10.9053 80.2943 11.1885L82.6883 17.2548L85.1272 11.1885C85.2618 10.8904 85.4713 10.7563 85.7556 10.7563H88.1047C88.2244 10.7563 88.3292 10.801 88.4189 10.9053C88.5237 10.9947 88.5686 11.0842 88.5686 11.2034C88.5686 11.263 88.5536 11.3525 88.5087 11.4717L82.5835 25.1394C82.4788 25.4375 82.2693 25.5717 81.9551 25.5717H79.6359ZM94.4189 21.6634C92.6833 21.6634 91.3516 21.2461 90.4239 20.4263C89.4813 19.6066 88.9726 18.5962 88.8977 17.1206C88.8828 16.9418 88.8828 16.6288 88.8828 16.1816C88.8828 15.7345 88.8828 15.4215 88.8977 15.2426C88.9875 13.767 89.5112 12.7716 90.4688 11.9518C91.4264 11.1172 92.7581 10.6998 94.4339 10.6998C96.1247 10.6998 97.4563 11.1172 98.414 11.9518C99.3716 12.7716 99.8952 13.767 99.985 15.2426C100 15.4215 100 15.7345 100 16.1816C100 16.6288 100 16.9418 99.985 17.1206C99.8952 18.6111 99.3865 19.6066 98.4588 20.4263C97.5162 21.2461 96.1696 21.6634 94.4189 21.6634ZM94.4189 19.2669C95.0324 19.2669 95.4813 19.0881 95.7805 18.7304C96.0798 18.3577 96.2444 17.7913 96.2893 17.0163C96.3042 16.8822 96.3042 16.599 96.3042 16.1816C96.3042 15.7643 96.3042 15.4811 96.2893 15.347C96.2444 14.6017 96.0798 14.0353 95.7656 13.6627C95.4663 13.2901 95.0324 13.0963 94.4189 13.0963C93.2668 13.0963 92.6384 13.8416 92.5785 15.347L92.5636 16.1816L92.5785 17.0163C92.6085 17.7764 92.7731 18.3577 93.0573 18.7304C93.3716 19.0881 93.8204 19.2669 94.4189 19.2669Z" fill="#03192E"/>
<path d="M24.079 4.20841C24.9056 2.93657 24.5267 1.2637 23.2753 0.438719C22.0009 -0.386259 20.3247 -0.00814405 19.4981 1.24078L4.64163 24.3173C3.81499 25.5891 4.19387 27.262 5.4453 28.087C6.71969 28.9119 8.39592 28.5338 9.22255 27.2849L24.079 4.20841Z" fill="#00CD37"/>
<path d="M14.8943 4.20841C15.7209 2.93657 15.3421 1.2637 14.0906 0.438719C12.8162 -0.386259 11.14 -0.00814405 10.3134 1.24078L6.19399 7.54034C5.36736 8.81218 5.74623 10.4851 6.99766 11.31C8.27206 12.135 9.94829 11.7569 10.7749 10.508L14.8943 4.20841Z" fill="#0085FF"/>
<path d="M6.01937 4.20868C6.84601 2.93684 6.46713 1.26396 5.2157 0.438985C3.94131 -0.363077 2.26508 -0.00787829 1.43845 1.26396L0.439599 2.79934C-0.387034 4.07118 -0.0081604 5.74406 1.24327 6.56903C2.51766 7.39401 4.19389 7.0159 5.02052 5.76697L6.01937 4.20868Z" fill="#FAC800"/>
<path d="M13.6883 24.3633C12.8616 25.6352 13.2405 27.3081 14.4919 28.133C15.7663 28.958 17.4425 28.5799 18.2692 27.331L22.3886 21.0314C23.2152 19.7596 22.8363 18.0867 21.5849 17.2617C20.3105 16.4367 18.6343 16.8149 17.8076 18.0638L13.6883 24.3633Z" fill="#DD4F24"/>
<path d="M22.5636 24.3631C21.737 25.6349 22.1159 27.3078 23.3673 28.1327C24.6417 28.9348 26.3179 28.5796 27.1445 27.3078L28.1319 25.7839C28.9585 24.512 28.5797 22.8391 27.3282 22.0142C26.0539 21.1892 24.3776 21.5673 23.551 22.8162L22.5636 24.3631Z" fill="#FAC800"/>
</svg>