<svg width="24" height="24" viewBox="0 0 24 24" fill="none" xmlns="http://www.w3.org/2000/svg">
<rect opacity="0.01" width="24" height="24" fill="#172B4D"/>
<path fill-rule="evenodd" clip-rule="evenodd" d="M17.31 15.9L20.71 19.29C20.8993 19.4778 21.0058 19.7334 21.0058 20C21.0058 20.2666 20.8993 20.5222 20.71 20.71C20.5222 20.8993 20.2666 21.0058 20 21.0058C19.7334 21.0058 19.4778 20.8993 19.29 20.71L15.9 17.31C14.5025 18.407 12.7767 19.0022 11 19C6.58172 19 3 15.4183 3 11C3 6.58172 6.58172 3 11 3C15.4183 3 19 6.58172 19 11C19.0022 12.7767 18.407 14.5025 17.31 15.9ZM11.0003 5C7.68662 5 5.00033 7.68629 5.00033 11C5.00033 14.3137 7.68662 17 11.0003 17C14.314 17 17.0003 14.3137 17.0003 11C17.0003 7.68629 14.314 5 11.0003 5Z" fill="#172B4D"/>
</svg>
